<svg width="898" height="80" viewBox="0 0 898 80" fill="none" xmlns="http://www.w3.org/2000/svg">
<path d="M0.504262 78V23.4545H17.017V33.4688H17.6207C18.7571 30.1544 20.6747 27.5384 23.3736 25.6207C26.0724 23.7031 29.2921 22.7443 33.0327 22.7443C36.8206 22.7443 40.0639 23.715 42.7628 25.6562C45.4616 27.5975 47.178 30.2017 47.9119 33.4688H48.4801C49.4981 30.2254 51.4867 27.633 54.446 25.6918C57.4053 23.7268 60.8973 22.7443 64.9219 22.7443C70.0829 22.7443 74.2732 24.4015 77.4929 27.7159C80.7126 31.0066 82.3224 35.5284 82.3224 41.2812V78H64.9574V45.2585C64.9574 42.536 64.259 40.4645 62.8622 39.044C61.4654 37.5999 59.6544 36.8778 57.429 36.8778C55.0379 36.8778 53.1558 37.6591 51.7827 39.2216C50.4332 40.7604 49.7585 42.8319 49.7585 45.4361V78H33.0682V45.081C33.0682 42.5478 32.3816 40.5473 31.0085 39.0795C29.6354 37.6117 27.8243 36.8778 25.5753 36.8778C24.0601 36.8778 22.7225 37.2448 21.5625 37.9787C20.4025 38.6889 19.491 39.7069 18.8281 41.0327C18.1889 42.3584 17.8693 43.9209 17.8693 45.7202V78H0.504262ZM88.0824 78V23.4545H105.447V78H88.0824ZM96.7827 17.098C94.3442 17.098 92.2491 16.2931 90.4972 14.6832C88.7453 13.0497 87.8693 11.0848 87.8693 8.78835C87.8693 6.51562 88.7453 4.57433 90.4972 2.96449C92.2491 1.33096 94.3442 0.5142 96.7827 0.5142C99.2448 0.5142 101.34 1.33096 103.068 2.96449C104.82 4.57433 105.696 6.51562 105.696 8.78835C105.696 11.0848 104.82 13.0497 103.068 14.6832C101.34 16.2931 99.2448 17.098 96.7827 17.098ZM136.962 79.0298C131.209 79.0298 126.273 77.8461 122.154 75.4787C118.058 73.1113 114.909 69.8205 112.708 65.6065C110.506 61.3688 109.405 56.4683 109.405 50.9048C109.405 45.3177 110.506 40.4171 112.708 36.2031C114.933 31.9654 118.094 28.6629 122.189 26.2955C126.309 23.928 131.221 22.7443 136.926 22.7443C141.969 22.7443 146.361 23.6558 150.101 25.4787C153.865 27.3016 156.801 29.8821 158.908 33.2202C161.039 36.5346 162.163 40.429 162.282 44.9034H146.053C145.721 42.1098 144.775 39.92 143.212 38.3338C141.673 36.7476 139.661 35.9545 137.175 35.9545C135.163 35.9545 133.399 36.5227 131.884 37.6591C130.369 38.7718 129.185 40.429 128.333 42.6307C127.504 44.8087 127.09 47.5076 127.09 50.7273C127.09 53.947 127.504 56.6695 128.333 58.8949C129.185 61.0966 130.369 62.7656 131.884 63.902C133.399 65.0147 135.163 65.571 137.175 65.571C138.785 65.571 140.205 65.2277 141.436 64.5412C142.691 63.8546 143.721 62.8485 144.526 61.5227C145.331 60.1733 145.84 58.5398 146.053 56.6222H162.282C162.116 61.1203 160.991 65.0502 158.908 68.4119C156.848 71.7737 153.948 74.3897 150.208 76.2599C146.491 78.1065 142.076 79.0298 136.962 79.0298ZM183.533 46.892V78H166.168V5.27273H182.965V33.4688H183.569C184.8 30.107 186.812 27.4792 189.606 25.5852C192.423 23.6913 195.868 22.7443 199.94 22.7443C203.775 22.7443 207.113 23.5966 209.954 25.3011C212.795 26.982 214.996 29.3613 216.559 32.4389C218.145 35.5166 218.926 39.1151 218.903 43.2344V78H201.538V46.6435C201.561 43.6132 200.804 41.2457 199.265 39.5412C197.726 37.8366 195.56 36.9844 192.766 36.9844C190.943 36.9844 189.334 37.3868 187.937 38.1918C186.564 38.973 185.487 40.0975 184.705 41.5653C183.948 43.0331 183.557 44.8087 183.533 46.892ZM240.119 78.9233C236.639 78.9233 233.549 78.3433 230.85 77.1832C228.175 75.9995 226.056 74.224 224.494 71.8565C222.955 69.4654 222.186 66.4706 222.186 62.8722C222.186 59.8419 222.718 57.285 223.784 55.2017C224.849 53.1184 226.317 51.4257 228.187 50.1236C230.057 48.8215 232.212 47.839 234.65 47.1761C237.089 46.4896 239.693 46.0279 242.463 45.7912C245.564 45.5071 248.062 45.2112 249.956 44.9034C251.85 44.572 253.223 44.1103 254.075 43.5185C254.951 42.9029 255.389 42.0388 255.389 40.9261V40.7486C255.389 38.9257 254.761 37.517 253.507 36.5227C252.252 35.5284 250.559 35.0312 248.429 35.0312C246.132 35.0312 244.286 35.5284 242.889 36.5227C241.492 37.517 240.604 38.8902 240.225 40.642L224.21 40.0739C224.683 36.7595 225.903 33.8002 227.868 31.196C229.856 28.5682 232.579 26.5085 236.035 25.017C239.515 23.5019 243.694 22.7443 248.571 22.7443C252.051 22.7443 255.259 23.1586 258.194 23.9872C261.13 24.7921 263.687 25.9759 265.865 27.5384C268.043 29.0772 269.724 30.9711 270.907 33.2202C272.115 35.4692 272.718 38.0379 272.718 40.9261V78H256.383V70.4006H255.957C254.986 72.2472 253.743 73.8097 252.228 75.0881C250.737 76.3665 248.973 77.3253 246.937 77.9645C244.925 78.6037 242.652 78.9233 240.119 78.9233ZM245.481 67.5597C247.351 67.5597 249.032 67.1809 250.524 66.4233C252.039 65.6657 253.246 64.6241 254.146 63.2983C255.046 61.9489 255.495 60.3864 255.495 58.6108V53.4261C254.998 53.6866 254.395 53.9233 253.684 54.1364C252.998 54.3494 252.24 54.5507 251.412 54.7401C250.583 54.9295 249.731 55.0952 248.855 55.2372C247.979 55.3793 247.138 55.5095 246.333 55.6278C244.7 55.8883 243.303 56.2907 242.143 56.8352C241.007 57.3797 240.131 58.09 239.515 58.9659C238.923 59.8182 238.627 60.8362 238.627 62.0199C238.627 63.8191 239.267 65.1922 240.545 66.1392C241.847 67.0862 243.493 67.5597 245.481 67.5597ZM303.833 79.0298C298.128 79.0298 293.204 77.9053 289.061 75.6562C284.941 73.3835 281.769 70.152 279.544 65.9616C277.342 61.7476 276.241 56.7405 276.241 50.9403C276.241 45.3059 277.354 40.3816 279.579 36.1676C281.805 31.9299 284.941 28.6392 288.99 26.2955C293.038 23.928 297.808 22.7443 303.301 22.7443C307.183 22.7443 310.734 23.348 313.954 24.5554C317.174 25.7628 319.956 27.5502 322.299 29.9176C324.643 32.285 326.466 35.2088 327.768 38.6889C329.07 42.1454 329.721 46.1108 329.721 50.5852V54.9176H282.314V44.8324H313.564C313.54 42.9858 313.102 41.3404 312.25 39.8963C311.397 38.4522 310.225 37.3277 308.734 36.5227C307.266 35.6941 305.574 35.2798 303.656 35.2798C301.715 35.2798 299.975 35.7178 298.436 36.5938C296.897 37.446 295.678 38.6179 294.778 40.1094C293.878 41.5772 293.405 43.2462 293.358 45.1165V55.3793C293.358 57.6046 293.796 59.5578 294.672 61.2386C295.547 62.8958 296.79 64.1861 298.4 65.1094C300.01 66.0327 301.928 66.4943 304.153 66.4943C305.692 66.4943 307.089 66.2812 308.343 65.8551C309.598 65.429 310.675 64.8016 311.575 63.973C312.475 63.1444 313.149 62.1264 313.599 60.919L329.544 61.3807C328.881 64.9555 327.425 68.0687 325.176 70.7202C322.95 73.348 320.027 75.3958 316.404 76.8636C312.782 78.3078 308.592 79.0298 303.833 79.0298ZM350.955 5.27273V78H333.59V5.27273H350.955ZM398.954 79.0298C393.201 79.0298 388.265 77.8461 384.146 75.4787C380.05 73.1113 376.902 69.8205 374.7 65.6065C372.498 61.3688 371.397 56.4683 371.397 50.9048C371.397 45.3177 372.498 40.4171 374.7 36.2031C376.925 31.9654 380.086 28.6629 384.181 26.2955C388.301 23.928 393.213 22.7443 398.919 22.7443C403.961 22.7443 408.353 23.6558 412.093 25.4787C415.858 27.3016 418.793 29.8821 420.9 33.2202C423.031 36.5346 424.155 40.429 424.274 44.9034H408.045C407.714 42.1098 406.767 39.92 405.204 38.3338C403.665 36.7476 401.653 35.9545 399.167 35.9545C397.155 35.9545 395.391 36.5227 393.876 37.6591C392.361 38.7718 391.177 40.429 390.325 42.6307C389.496 44.8087 389.082 47.5076 389.082 50.7273C389.082 53.947 389.496 56.6695 390.325 58.8949C391.177 61.0966 392.361 62.7656 393.876 63.902C395.391 65.0147 397.155 65.571 399.167 65.571C400.777 65.571 402.198 65.2277 403.429 64.5412C404.683 63.8546 405.713 62.8485 406.518 61.5227C407.323 60.1733 407.832 58.5398 408.045 56.6222H424.274C424.108 61.1203 422.984 65.0502 420.9 68.4119C418.841 71.7737 415.94 74.3897 412.2 76.2599C408.483 78.1065 404.068 79.0298 398.954 79.0298ZM443.537 78.9233C440.057 78.9233 436.967 78.3433 434.268 77.1832C431.593 75.9995 429.474 74.224 427.912 71.8565C426.373 69.4654 425.604 66.4706 425.604 62.8722C425.604 59.8419 426.136 57.285 427.202 55.2017C428.267 53.1184 429.735 51.4257 431.605 50.1236C433.475 48.8215 435.63 47.839 438.068 47.1761C440.507 46.4896 443.111 46.0279 445.881 45.7912C448.982 45.5071 451.48 45.2112 453.374 44.9034C455.268 44.572 456.641 44.1103 457.493 43.5185C458.369 42.9029 458.807 42.0388 458.807 40.9261V40.7486C458.807 38.9257 458.179 37.517 456.925 36.5227C455.67 35.5284 453.977 35.0312 451.847 35.0312C449.55 35.0312 447.704 35.5284 446.307 36.5227C444.91 37.517 444.022 38.8902 443.643 40.642L427.628 40.0739C428.101 36.7595 429.321 33.8002 431.286 31.196C433.274 28.5682 435.997 26.5085 439.453 25.017C442.933 23.5019 447.112 22.7443 451.989 22.7443C455.469 22.7443 458.677 23.1586 461.612 23.9872C464.548 24.7921 467.105 25.9759 469.283 27.5384C471.461 29.0772 473.142 30.9711 474.325 33.2202C475.533 35.4692 476.136 38.0379 476.136 40.9261V78H459.801V70.4006H459.375C458.404 72.2472 457.161 73.8097 455.646 75.0881C454.155 76.3665 452.391 77.3253 450.355 77.9645C448.343 78.6037 446.07 78.9233 443.537 78.9233ZM448.899 67.5597C450.769 67.5597 452.45 67.1809 453.942 66.4233C455.457 65.6657 456.664 64.6241 457.564 63.2983C458.464 61.9489 458.913 60.3864 458.913 58.6108V53.4261C458.416 53.6866 457.813 53.9233 457.102 54.1364C456.416 54.3494 455.658 54.5507 454.83 54.7401C454.001 54.9295 453.149 55.0952 452.273 55.2372C451.397 55.3793 450.556 55.5095 449.751 55.6278C448.118 55.8883 446.721 56.2907 445.561 56.8352C444.425 57.3797 443.549 58.09 442.933 58.9659C442.341 59.8182 442.045 60.8362 442.045 62.0199C442.045 63.8191 442.685 65.1922 443.963 66.1392C445.265 67.0862 446.911 67.5597 448.899 67.5597ZM499.119 46.892V78H481.754V23.4545H498.267V33.4688H498.871C500.078 30.1307 502.138 27.5147 505.05 25.6207C507.962 23.7031 511.43 22.7443 515.455 22.7443C519.29 22.7443 522.616 23.6084 525.433 25.3366C528.274 27.0412 530.476 29.4323 532.038 32.5099C533.625 35.5639 534.406 39.1387 534.382 43.2344V78H517.017V46.6435C517.041 43.6132 516.271 41.2457 514.709 39.5412C513.17 37.8366 511.027 36.9844 508.281 36.9844C506.458 36.9844 504.848 37.3868 503.452 38.1918C502.079 38.973 501.013 40.0975 500.256 41.5653C499.522 43.0331 499.143 44.8087 499.119 46.892ZM565.595 79.0298C559.866 79.0298 554.941 77.858 550.822 75.5142C546.726 73.1468 543.566 69.8561 541.341 65.642C539.139 61.4044 538.038 56.492 538.038 50.9048C538.038 45.294 539.139 40.3816 541.341 36.1676C543.566 31.9299 546.726 28.6392 550.822 26.2955C554.941 23.928 559.866 22.7443 565.595 22.7443C571.324 22.7443 576.236 23.928 580.332 26.2955C584.451 28.6392 587.612 31.9299 589.814 36.1676C592.039 40.3816 593.152 45.294 593.152 50.9048C593.152 56.492 592.039 61.4044 589.814 65.642C587.612 69.8561 584.451 73.1468 580.332 75.5142C576.236 77.858 571.324 79.0298 565.595 79.0298ZM565.701 65.9261C567.785 65.9261 569.548 65.2869 570.993 64.0085C572.437 62.7301 573.538 60.9545 574.295 58.6818C575.076 56.4091 575.467 53.7812 575.467 50.7983C575.467 47.768 575.076 45.1165 574.295 42.8438C573.538 40.571 572.437 38.7955 570.993 37.517C569.548 36.2386 567.785 35.5994 565.701 35.5994C563.547 35.5994 561.724 36.2386 560.233 37.517C558.765 38.7955 557.64 40.571 556.859 42.8438C556.101 45.1165 555.723 47.768 555.723 50.7983C555.723 53.7812 556.101 56.4091 556.859 58.6818C557.64 60.9545 558.765 62.7301 560.233 64.0085C561.724 65.2869 563.547 65.9261 565.701 65.9261ZM614.412 46.892V78H597.047V23.4545H613.56V33.4688H614.164C615.371 30.1307 617.431 27.5147 620.343 25.6207C623.255 23.7031 626.723 22.7443 630.748 22.7443C634.583 22.7443 637.909 23.6084 640.726 25.3366C643.567 27.0412 645.769 29.4323 647.331 32.5099C648.917 35.5639 649.699 39.1387 649.675 43.2344V78H632.31V46.6435C632.334 43.6132 631.564 41.2457 630.002 39.5412C628.463 37.8366 626.32 36.9844 623.574 36.9844C621.751 36.9844 620.141 37.3868 618.745 38.1918C617.372 38.973 616.306 40.0975 615.549 41.5653C614.815 43.0331 614.436 44.8087 614.412 46.892ZM655.426 78V23.4545H672.791V78H655.426ZM664.126 17.098C661.688 17.098 659.593 16.2931 657.841 14.6832C656.089 13.0497 655.213 11.0848 655.213 8.78835C655.213 6.51562 656.089 4.57433 657.841 2.96449C659.593 1.33096 661.688 0.5142 664.126 0.5142C666.589 0.5142 668.684 1.33096 670.412 2.96449C672.164 4.57433 673.04 6.51562 673.04 8.78835C673.04 11.0848 672.164 13.0497 670.412 14.6832C668.684 16.2931 666.589 17.098 664.126 17.098ZM678.986 78V68.0923L704.27 37.304V36.9489H679.874V23.4545H724.973V34.321L701.536 64.1506V64.5057H725.826V78H678.986ZM747.424 78.9233C743.944 78.9233 740.854 78.3433 738.155 77.1832C735.48 75.9995 733.361 74.224 731.799 71.8565C730.26 69.4654 729.49 66.4706 729.49 62.8722C729.49 59.8419 730.023 57.285 731.088 55.2017C732.154 53.1184 733.622 51.4257 735.492 50.1236C737.362 48.8215 739.516 47.839 741.955 47.1761C744.393 46.4896 746.998 46.0279 749.767 45.7912C752.869 45.5071 755.366 45.2112 757.26 44.9034C759.154 44.572 760.527 44.1103 761.38 43.5185C762.256 42.9029 762.694 42.0388 762.694 40.9261V40.7486C762.694 38.9257 762.066 37.517 760.811 36.5227C759.557 35.5284 757.864 35.0312 755.733 35.0312C753.437 35.0312 751.59 35.5284 750.194 36.5227C748.797 37.517 747.909 38.8902 747.53 40.642L731.515 40.0739C731.988 36.7595 733.207 33.8002 735.172 31.196C737.161 28.5682 739.883 26.5085 743.34 25.017C746.82 23.5019 750.998 22.7443 755.875 22.7443C759.355 22.7443 762.563 23.1586 765.499 23.9872C768.435 24.7921 770.991 25.9759 773.169 27.5384C775.347 29.0772 777.028 30.9711 778.212 33.2202C779.419 35.4692 780.023 38.0379 780.023 40.9261V78H763.688V70.4006H763.262C762.291 72.2472 761.048 73.8097 759.533 75.0881C758.042 76.3665 756.278 77.3253 754.242 77.9645C752.23 78.6037 749.957 78.9233 747.424 78.9233ZM752.786 67.5597C754.656 67.5597 756.337 67.1809 757.828 66.4233C759.344 65.6657 760.551 64.6241 761.451 63.2983C762.35 61.9489 762.8 60.3864 762.8 58.6108V53.4261C762.303 53.6866 761.699 53.9233 760.989 54.1364C760.302 54.3494 759.545 54.5507 758.716 54.7401C757.888 54.9295 757.035 55.0952 756.159 55.2372C755.283 55.3793 754.443 55.5095 753.638 55.6278C752.005 55.8883 750.608 56.2907 749.448 56.8352C748.311 57.3797 747.435 58.09 746.82 58.9659C746.228 59.8182 745.932 60.8362 745.932 62.0199C745.932 63.8191 746.571 65.1922 747.85 66.1392C749.152 67.0862 750.797 67.5597 752.786 67.5597ZM805.563 78.7812C801.538 78.7812 797.881 77.7396 794.59 75.6562C791.299 73.5729 788.671 70.4479 786.706 66.2812C784.741 62.1146 783.759 56.9418 783.759 50.7628C783.759 44.3471 784.777 39.0677 786.813 34.9247C788.849 30.7817 791.512 27.7159 794.803 25.7273C798.117 23.7386 801.68 22.7443 805.492 22.7443C808.356 22.7443 810.807 23.2415 812.843 24.2358C814.879 25.2064 816.56 26.4612 817.885 28C819.211 29.5388 820.217 31.1368 820.904 32.794H821.259V5.27273H838.624V78H821.436V69.1577H820.904C820.17 70.8385 819.128 72.4129 817.779 73.8807C816.429 75.3485 814.737 76.5322 812.701 77.4318C810.688 78.3314 808.309 78.7812 805.563 78.7812ZM811.6 65.2514C813.707 65.2514 815.506 64.6596 816.998 63.4759C818.489 62.2685 819.637 60.5758 820.442 58.3977C821.247 56.2197 821.65 53.6629 821.65 50.7273C821.65 47.7443 821.247 45.1757 820.442 43.0213C819.661 40.867 818.513 39.2098 816.998 38.0497C815.506 36.8897 813.707 36.3097 811.6 36.3097C809.445 36.3097 807.623 36.9015 806.131 38.0852C804.64 39.2689 803.503 40.938 802.722 43.0923C801.964 45.2467 801.586 47.7917 801.586 50.7273C801.586 53.6629 801.976 56.2197 802.757 58.3977C803.539 60.5758 804.663 62.2685 806.131 63.4759C807.623 64.6596 809.445 65.2514 811.6 65.2514ZM870.067 79.0298C864.338 79.0298 859.414 77.858 855.295 75.5142C851.199 73.1468 848.039 69.8561 845.813 65.642C843.612 61.4044 842.511 56.492 842.511 50.9048C842.511 45.294 843.612 40.3816 845.813 36.1676C848.039 31.9299 851.199 28.6392 855.295 26.2955C859.414 23.928 864.338 22.7443 870.067 22.7443C875.797 22.7443 880.709 23.928 884.805 26.2955C888.924 28.6392 892.085 31.9299 894.286 36.1676C896.512 40.3816 897.624 45.294 897.624 50.9048C897.624 56.492 896.512 61.4044 894.286 65.642C892.085 69.8561 888.924 73.1468 884.805 75.5142C880.709 77.858 875.797 79.0298 870.067 79.0298ZM870.174 65.9261C872.257 65.9261 874.021 65.2869 875.465 64.0085C876.909 62.7301 878.01 60.9545 878.768 58.6818C879.549 56.4091 879.94 53.7812 879.94 50.7983C879.94 47.768 879.549 45.1165 878.768 42.8438C878.01 40.571 876.909 38.7955 875.465 37.517C874.021 36.2386 872.257 35.5994 870.174 35.5994C868.02 35.5994 866.197 36.2386 864.705 37.517C863.237 38.7955 862.113 40.571 861.332 42.8438C860.574 45.1165 860.195 47.768 860.195 50.7983C860.195 53.7812 860.574 56.4091 861.332 58.6818C862.113 60.9545 863.237 62.7301 864.705 64.0085C866.197 65.2869 868.02 65.9261 870.174 65.9261Z" fill="#E23C12"/>
</svg>
