<svg width="1285" height="152" viewBox="0 0 1285 152" fill="none" xmlns="http://www.w3.org/2000/svg">
<path d="M65.486 151.22C25.748 151.22 0.44 129.242 0.44 93.056C0.44 56.648 25.748 34.892 65.486 34.892C103.67 34.892 128.09 54.428 128.09 84.398V87.95H86.576V86.174C86.576 74.63 78.14 72.188 64.598 72.188C49.28 72.188 41.954 75.518 41.954 93.056C41.954 110.372 49.28 113.702 64.598 113.702C78.14 113.702 86.576 111.482 86.576 99.938V97.94H128.09V101.714C128.09 131.462 103.67 151.22 65.486 151.22ZM175.428 151.22C150.12 151.22 135.912 139.676 135.912 120.584C135.912 104.822 146.79 93.5 172.098 91.058L217.608 86.618V84.398C217.608 73.076 212.724 71.3 197.85 71.3C184.086 71.3 179.868 73.964 179.868 83.288V84.176H138.132V83.732C138.132 53.984 162.996 34.892 200.958 34.892C240.03 34.892 258.9 53.984 258.9 85.286V149H219.828V125.468H217.608C213.39 141.23 199.626 151.22 175.428 151.22ZM177.87 117.92C177.87 121.472 181.422 122.138 187.86 122.138C208.062 122.138 216.276 119.696 217.386 109.706L183.198 113.702C179.424 114.146 177.87 115.478 177.87 117.92ZM313.007 149H271.271V37.112H310.343V71.078H312.563C315.005 52.43 327.215 34.892 357.185 34.892C387.377 34.892 401.585 53.096 401.585 77.294V149H359.849V92.612C359.849 77.072 354.077 72.188 335.873 72.188C317.447 72.188 313.007 76.85 313.007 91.28V149ZM475.862 151.22C437.012 151.22 410.594 129.242 410.594 93.056C410.594 56.648 437.012 34.892 475.862 34.892C514.712 34.892 541.13 56.648 541.13 93.056C541.13 129.242 514.712 151.22 475.862 151.22ZM475.862 114.368C494.732 114.368 499.838 109.262 499.838 93.056C499.838 76.85 494.732 71.522 475.862 71.522C456.992 71.522 451.886 76.85 451.886 93.056C451.886 109.262 456.992 114.368 475.862 114.368ZM592.892 149H551.156V37.112H590.228V71.078H592.448C594.89 52.43 607.1 34.892 637.07 34.892C667.262 34.892 681.47 53.096 681.47 77.294V149H639.734V92.612C639.734 77.072 633.962 72.188 615.758 72.188C597.332 72.188 592.892 76.85 592.892 91.28V149ZM735.544 26.9H693.808V0.259996H735.544V26.9ZM735.544 149H693.808V37.112H735.544V149ZM867.201 149H745.545V113.48L785.949 86.396L809.259 74.63V71.744L785.949 73.52H748.875V37.112H863.871V72.632L819.915 100.826L798.159 111.926V114.812L819.915 112.592H867.201V149ZM913.405 151.22C888.097 151.22 873.889 139.676 873.889 120.584C873.889 104.822 884.767 93.5 910.075 91.058L955.585 86.618V84.398C955.585 73.076 950.701 71.3 935.827 71.3C922.063 71.3 917.845 73.964 917.845 83.288V84.176H876.109V83.732C876.109 53.984 900.973 34.892 938.935 34.892C978.007 34.892 996.877 53.984 996.877 85.286V149H957.805V125.468H955.585C951.367 141.23 937.603 151.22 913.405 151.22ZM915.847 117.92C915.847 121.472 919.399 122.138 925.837 122.138C946.039 122.138 954.253 119.696 955.363 109.706L921.175 113.702C917.401 114.146 915.847 115.478 915.847 117.92ZM1060.09 151.22C1025.9 151.22 1007.03 129.242 1007.03 93.056C1007.03 56.648 1025.45 34.892 1058.31 34.892C1084.73 34.892 1097.16 47.324 1100.49 65.972H1102.71V0.259996H1144.45V149H1105.37V118.808H1103.15C1099.6 141.008 1086.28 151.22 1060.09 151.22ZM1049.21 93.056C1049.21 107.93 1055.87 113.036 1075.18 113.036C1093.83 113.036 1102.71 109.484 1102.71 93.278V91.724C1102.71 75.962 1093.83 72.854 1075.18 72.854C1055.87 72.854 1049.21 78.182 1049.21 93.056ZM1219.69 151.22C1180.84 151.22 1154.42 129.242 1154.42 93.056C1154.42 56.648 1180.84 34.892 1219.69 34.892C1258.54 34.892 1284.96 56.648 1284.96 93.056C1284.96 129.242 1258.54 151.22 1219.69 151.22ZM1219.69 114.368C1238.56 114.368 1243.67 109.262 1243.67 93.056C1243.67 76.85 1238.56 71.522 1219.69 71.522C1200.82 71.522 1195.72 76.85 1195.72 93.056C1195.72 109.262 1200.82 114.368 1219.69 114.368Z" fill="#E23C12"/>
</svg>
